# xmcd
#
# Track frame offsets: 
#        300
#        14449
#        26443
#        41636
#        56709
#        70890
#        81491
#        92702
#        109422
#        123905
#        138604
#
# Disc length: 2067 seconds
#
# Revision: 2
# Processed by: cddbd v1.5.2PL0 Copyright (c) Steve Scherf et al.
# Submitted via: ExactAudioCopy v1.0b3
#
DISCID=9d080f0b
DTITLE=Marty Stuart and His Fabulous Superlatives - Saturday Night Sunda
DTITLE=y Morning [CD1 Rough Around The Edges)
DYEAR=2014
DGENRE=Country
TTITLE0=Jailhouse
TTITLE1=Geraldine
TTITLE2=I'm Blue, I'm Lonesome
TTITLE3=When It Comes To Loving You
TTITLE4=Rough Around The Edges
TTITLE5=Sad House, Big Party
TTITLE6=Talking To The Wall
TTITLE7=Life Has It's Little Ups And Downs
TTITLE8=Look At That Girl
TTITLE9=Old, Old House
TTITLE10=Streamline
EXTD=YEAR: 2014
EXTT0=
EXTT1=
EXTT2=
EXTT3=
EXTT4=
EXTT5=
EXTT6=
EXTT7=
EXTT8=
EXTT9=
EXTT10=
PLAYORDER=
